# xmcd
#
# Track frame offsets: 
#        150
#        14097
#        28772
#        41925
#        55295
#        68157
#        81160
#        94547
#        108777
#        122735
#        137285
#        148895
#        161490
#        173592
#        186622
#        199245
#        213377
#        227455
#        241282
#        255032
#        269010
#        281822
#        295250
#
# Disc length: 4107 seconds
#
# Revision: 2
# Processed by: cddbd v1.5PL3 Copyright (c) Steve Scherf et al.
# Submitted via: ExactAudioCopy v0.90b4
#
DISCID=55100917
DTITLE=Blind Lemon Jefferson - Complete Recorded Works Vol 1 (1925-26)
DYEAR=1925
DGENRE=Blues
TTITLE0=I Want To Be Like Jesus In My Heart
TTITLE1=All I Want Is That Pure Religion
TTITLE2=Got The Blues
TTITLE3=Long Lonesome Blues
TTITLE4=Booster Blues
TTITLE5=Dry Southern Blues
TTITLE6=Black Horse Blues
TTITLE7=Corinna Blues (Take 2)
TTITLE8=Got The Blues
TTITLE9=Long Lonesome Blues
TTITLE10=Jack O'Diamonds Blues (Take 1)
TTITLE11=Jack O'Diamonds Blues (Take 2)
TTITLE12=Chock House Blues
TTITLE13=Beggin' Back
TTITLE14=Old Rounders Blues
TTITLE15=Stocking Feet Blues (Take 1)
TTITLE16=That Black Snake Moan (Take 2)
TTITLE17=Wartime Blues
TTITLE18=Broke and Hungry (Take 2)
TTITLE19=Shuckin' Sugar Blues (Take 2)
TTITLE20=Booger Rooger Blues
TTITLE21=Rabbit Foot Blues
TTITLE22=Bad Luck Blues
EXTD=
EXTT0=
EXTT1=
EXTT2=
EXTT3=
EXTT4=
EXTT5=
EXTT6=
EXTT7=
EXTT8=
EXTT9=
EXTT10=
EXTT11=
EXTT12=
EXTT13=
EXTT14=
EXTT15=
EXTT16=
EXTT17=
EXTT18=
EXTT19=
EXTT20=
EXTT21=
EXTT22=
PLAYORDER=
